# xmcd
#
# Track frame offsets:
#	150
#	24056
#	41463
#	60803
#	80791
#	98529
#	120098
#	133904
#	150106
#	167987
#	179316
#	196636
#	221173
#
# Disc length: 3131 seconds
#
# Revision: 1
# Processed by: cddbd v1.5.2PL0 Copyright (c) Steve Scherf et al.
# Submitted via: EasyCDDAExtractor 15.3.0.1
#
DISCID=930c390d
DTITLE=Blues For Friends - All About That Thang
DYEAR=2011
DGENRE=Blues
TTITLE0=Can't Find My Way Home
TTITLE1=Brown Sugar
TTITLE2=All About That Thang
TTITLE3=While My Guitar Gently Weeps
TTITLE4=Under My Thumb
TTITLE5=Running Down A Dream
TTITLE6=Route 66
TTITLE7=Texas Strut
TTITLE8=White Wedding
TTITLE9=Moving On
TTITLE10=Driving Woman
TTITLE11=Asphalt Cowboy
TTITLE12=Route 66 (Softversion)
EXTD=YEAR: 2011
EXTT0=
EXTT1=
EXTT2=
EXTT3=
EXTT4=
EXTT5=
EXTT6=
EXTT7=
EXTT8=
EXTT9=
EXTT10=
EXTT11=
EXTT12=
PLAYORDER=
